HIERARCHY
ROOT Hips
{
	OFFSET -0.001795 -0.223333 0.028219
	CHANNELS 6 Xposition Yposition Zposition Zrotation Yrotation Xrotation 
	JOINT LeftUpLeg
	{
		OFFSET 0.069520 -0.091406 -0.006815
		CHANNELS 3 Zrotation Yrotation Xrotation
		JOINT LeftLeg
		{
			OFFSET 0.034277 -0.375199 -0.004496
			CHANNELS 3 Zrotation Yrotation Xrotation
			JOINT LeftFoot
			{
				OFFSET -0.013596 -0.397961 -0.043693
				CHANNELS 3 Zrotation Yrotation Xrotation
				JOINT LeftToe
				{
					OFFSET 0.026358 -0.055791 0.119288
					CHANNELS 3 Zrotation Yrotation Xrotation
					End Site
					{
						OFFSET 0.000000 0.000000 0.000000
					}
				}
			}
		}
	}
	JOINT RightUpLeg
	{
		OFFSET -0.067670 -0.090522 -0.004320
		CHANNELS 3 Zrotation Yrotation Xrotation
		JOINT RightLeg
		{
			OFFSET -0.038290 -0.382569 -0.008850
			CHANNELS 3 Zrotation Yrotation Xrotation
			JOINT RightFoot
			{
				OFFSET 0.015774 -0.398415 -0.042312
				CHANNELS 3 Zrotation Yrotation Xrotation
				JOINT RightToe
				{
					OFFSET -0.025372 -0.048144 0.123348
					CHANNELS 3 Zrotation Yrotation Xrotation
					End Site
					{
						OFFSET 0.000000 0.000000 0.000000
					}
				}
			}
		}
	}
	JOINT Spine
	{
		OFFSET -0.002533 0.108963 -0.026696
		CHANNELS 3 Zrotation Yrotation Xrotation
		JOINT Spine1
		{
			OFFSET 0.005487 0.135180 0.001092
			CHANNELS 3 Zrotation Yrotation Xrotation
			JOINT Spine2
			{
				OFFSET 0.001457 0.052922 0.025425
				CHANNELS 3 Zrotation Yrotation Xrotation
				JOINT Neck
				{
					OFFSET -0.002778 0.213870 -0.042857
					CHANNELS 3 Zrotation Yrotation Xrotation
					JOINT Head
					{
						OFFSET 0.005152 0.064970 0.051349
						CHANNELS 3 Zrotation Yrotation Xrotation
						End Site
						{
							OFFSET 0.000000 0.000000 0.000000
						}
					}
				}
				JOINT LeftShoulder
				{
					OFFSET 0.078845 0.121749 -0.034090
					CHANNELS 3 Zrotation Yrotation Xrotation
					JOINT LeftArm
					{
						OFFSET 0.090977 0.030469 -0.008868
						CHANNELS 3 Zrotation Yrotation Xrotation
						JOINT LeftForeArm
						{
							OFFSET 0.259612 -0.012772 -0.027456
							CHANNELS 3 Zrotation Yrotation Xrotation
							JOINT LeftHand
							{
								OFFSET 0.249234 0.008986 -0.001171
								CHANNELS 3 Zrotation Yrotation Xrotation
								End Site
								{
									OFFSET 0.000000 0.000000 0.000000
								}
							}
						}
					}
				}
				JOINT RightShoulder
				{
					OFFSET -0.081759 0.118833 -0.038615
					CHANNELS 3 Zrotation Yrotation Xrotation
					JOINT RightArm
					{
						OFFSET -0.096012 0.032551 -0.009143
						CHANNELS 3 Zrotation Yrotation Xrotation
						JOINT RightForeArm
						{
							OFFSET -0.253742 -0.013329 -0.021401
							CHANNELS 3 Zrotation Yrotation Xrotation
							JOINT RightHand
							{
								OFFSET -0.255298 0.007772 -0.005559
								CHANNELS 3 Zrotation Yrotation Xrotation
								End Site
								{
									OFFSET 0.000000 0.000000 0.000000
								}
							}
						}
					}
				}
			}
		}
	}
}
MOTION
Frames: 15
Frame Time: 0.050000
0.000000 0.954193 0.000000 1.443450 8.158671 -0.200982 6.162292 -1.128103 -19.263439 -7.957081 0.979058 32.312221 5.591345 13.572571 8.224154 0.000000 0.000000 0.000000 2.843650 0.346776 -2.956724 1.551726 -0.051438 12.337278 -1.290199 -4.727385 4.872419 0.000000 0.000000 0.000000 0.392004 -1.077571 18.772254 2.999987 0.032264 -23.453553 0.092200 0.622396 23.155584 -0.824462 2.462693 -17.943918 0.000000 0.000000 0.000000 -30.590010 -3.124450 -2.402338 -41.845485 -7.214202 -3.664061 -14.324810 -30.164060 4.964225 0.000000 0.000000 0.000000 17.634651 9.820992 5.528480 42.285340 10.638451 -2.738274 8.373576 33.006360 3.962004 0.000000 0.000000 0.000000 
0.006492 0.956181 0.021877 1.556617 7.627595 0.312618 5.900421 -1.183380 -19.799874 -6.606312 0.704028 22.643838 2.210317 7.285037 6.528366 0.000000 0.000000 0.000000 2.656985 0.139974 -1.358297 1.032916 0.074554 11.011861 -0.938265 -4.092148 5.341308 0.000000 0.000000 0.000000 0.156048 -1.063742 19.370381 3.583596 0.000448 -26.416514 0.166301 0.924940 24.555490 -1.502113 3.081825 -20.918645 0.000000 0.000000 0.000000 -30.515054 -1.939078 -3.125803 -41.960439 -7.236255 -3.800833 -17.609142 -30.945244 6.043995 0.000000 0.000000 0.000000 16.529214 9.387746 5.233478 42.904685 10.616088 -2.869502 8.771347 32.686653 4.065616 0.000000 0.000000 0.000000 
0.013483 0.955428 0.044610 1.033925 4.698930 -0.909296 4.890906 -1.117041 -18.451756 -3.382837 0.174170 12.989055 -1.537022 1.922026 10.200452 0.000000 0.000000 0.000000 2.759814 -0.380007 2.646634 0.601495 0.177855 8.748984 0.000596 -1.982162 4.802480 0.000000 0.000000 0.000000 -0.304985 -0.966306 20.784817 3.825986 -0.072159 -27.216476 0.575342 1.920014 26.148218 -1.035508 2.712620 -20.942851 0.000000 0.000000 0.000000 -30.024101 -1.821178 -2.725021 -42.616376 -8.497228 -3.684522 -15.275180 -30.467488 5.391659 0.000000 0.000000 0.000000 14.945166 10.159310 5.304689 44.864434 10.900064 -2.848950 7.061268 33.931237 3.770148 0.000000 0.000000 0.000000 
0.020788 0.953493 0.068032 0.824114 2.940600 -0.970383 4.272746 -1.014755 -16.405035 -2.148391 0.108983 6.205562 -4.289360 -0.552352 15.431767 0.000000 0.000000 0.000000 2.616081 -0.664674 4.902751 0.444984 0.204601 7.857216 0.013139 -1.589672 3.620225 0.000000 0.000000 0.000000 -1.771870 -0.624011 20.786587 5.625028 -0.513160 -26.873022 0.381266 2.472239 26.486856 -0.781078 2.614939 -23.552024 0.000000 0.000000 0.000000 -30.122319 -1.261971 -2.883258 -42.598514 -9.082734 -3.578776 -16.061210 -29.657269 5.485657 0.000000 0.000000 0.000000 15.595136 10.789504 5.568376 44.739937 12.034051 -2.441079 6.679666 32.428435 3.397388 0.000000 0.000000 0.000000 
0.028710 0.950006 0.091674 -0.235934 0.830987 -1.040206 4.377448 -0.874765 -15.240136 -0.976886 -0.049290 5.831053 -3.781127 0.225193 16.108303 0.000000 0.000000 0.000000 2.916690 -0.810577 5.920460 -0.041953 0.323985 8.124677 1.143599 0.675921 4.194276 0.000000 0.000000 0.000000 -2.283144 -0.463480 21.069248 6.649308 -0.858169 -25.803378 0.576734 2.941848 26.272528 -0.376481 2.253713 -23.500771 0.000000 0.000000 0.000000 -29.848872 -1.900983 -2.097986 -42.850438 -9.837129 -3.420976 -14.622838 -29.263899 5.077757 0.000000 0.000000 0.000000 15.831118 11.107732 5.578492 45.100908 11.950549 -2.419162 3.848240 33.710581 2.733357 0.000000 0.000000 0.000000 
0.037195 0.948140 0.115198 -0.675856 -1.448947 -0.415902 4.534280 -0.778597 -14.774784 -0.841437 -0.079288 6.885572 -2.359081 1.668348 14.968816 0.000000 0.000000 0.000000 2.568368 -0.724238 5.459972 0.005586 0.444313 10.559964 1.257704 1.196043 3.449752 0.000000 0.000000 0.000000 -3.360628 -0.161896 20.909746 7.366309 -1.094991 -25.297246 0.341961 2.325882 26.166718 -0.204584 1.852731 -23.888185 0.000000 0.000000 0.000000 -30.186204 -2.049866 -1.222338 -41.665635 -10.463649 -3.370606 -13.925254 -29.704326 5.067167 0.000000 0.000000 0.000000 16.207123 12.166355 5.715876 45.657647 12.307898 -2.200701 2.768064 34.058464 2.350671 0.000000 0.000000 0.000000 
0.046064 0.948914 0.138856 -1.081939 -4.657055 0.642202 4.634015 -0.681002 -14.496433 -0.822308 -0.068563 7.944091 -0.440198 3.742816 13.350197 0.000000 0.000000 0.000000 1.935647 -0.459998 3.547078 -0.144142 0.713614 14.017325 2.018966 2.133237 4.554383 0.000000 0.000000 0.000000 -3.929781 0.082422 20.261289 7.018984 -1.051614 -25.198093 0.446192 2.444304 26.028674 0.169959 1.337067 -23.642754 0.000000 0.000000 0.000000 -30.592809 -2.367185 -0.282211 -40.309957 -11.310437 -3.248814 -13.196613 -29.421264 4.895003 0.000000 0.000000 0.000000 17.169334 11.911629 5.231500 45.781126 12.532721 -2.025229 2.814709 33.861081 2.244122 0.000000 0.000000 0.000000 
0.055042 0.951733 0.162171 -1.091189 -6.815083 0.841444 4.270965 -0.608979 -12.765949 -1.260693 0.047094 7.758913 0.790103 5.205849 12.395607 0.000000 0.000000 0.000000 0.677455 -0.102260 0.763742 0.987403 0.881040 20.122603 2.114786 0.400908 7.623688 0.000000 0.000000 0.000000 -4.625100 0.303774 20.044126 6.651115 -1.114497 -23.889628 0.350793 1.695705 25.214130 -0.021084 1.106645 -23.018718 0.000000 0.000000 0.000000 -30.335093 -3.128266 1.072244 -39.818794 -12.960396 -2.900684 -11.655753 -28.378763 4.375560 0.000000 0.000000 0.000000 18.057374 12.183941 4.859743 46.321721 12.444431 -1.837662 2.012114 34.032046 1.883893 0.000000 0.000000 0.000000 
0.063049 0.954937 0.184859 -1.285074 -8.413714 0.452249 4.435210 -0.472899 -10.593357 -2.368371 0.288267 7.666422 1.605433 6.219946 11.722870 0.000000 0.000000 0.000000 -0.547383 0.203000 -2.013717 2.059583 1.214644 28.092987 3.037760 0.755529 10.225356 0.000000 0.000000 0.000000 -5.547959 0.554566 20.371712 7.010201 -1.259028 -23.598297 0.510252 1.101649 25.231671 0.678521 0.417512 -22.717514 0.000000 0.000000 0.000000 -30.919860 -3.970005 2.322472 -38.331309 -13.801677 -2.837411 -11.012269 -28.273487 4.227473 0.000000 0.000000 0.000000 18.559803 12.391041 4.562732 46.200709 12.819663 -1.596233 2.971926 33.639640 2.019486 0.000000 0.000000 0.000000 
0.068864 0.958089 0.206814 -1.769257 -9.412213 0.146730 4.725712 -0.335976 -8.241048 -2.930079 0.409224 6.897989 1.959060 6.639538 11.360768 0.000000 0.000000 0.000000 -2.094872 0.579667 -6.115405 5.526384 0.553828 36.131899 2.319641 -3.070142 15.268614 0.000000 0.000000 0.000000 -6.079817 0.712193 20.702711 6.958821 -1.227584 -23.932904 0.788416 -0.597144 26.376174 -0.159767 0.618773 -24.398155 0.000000 0.000000 0.000000 -30.673474 -4.606724 3.813414 -37.947072 -15.784339 -2.646222 -9.158872 -28.549041 3.883123 0.000000 0.000000 0.000000 17.968712 12.611995 4.077607 46.575737 12.600144 -1.634675 4.733222 35.163021 2.473081 0.000000 0.000000 0.000000 
0.071886 0.960838 0.228306 -2.332066 -10.783280 0.339759 5.158086 -0.195238 -5.936313 -3.079047 0.439524 5.196443 2.100362 6.804050 11.751832 0.000000 0.000000 0.000000 -3.502806 0.878226 -9.886437 9.192993 -0.638715 39.704252 -0.663053 -9.652239 19.583772 0.000000 0.000000 0.000000 -6.201199 0.760653 20.095164 8.115529 -1.558515 -23.460433 -0.150339 -1.606862 26.470519 -0.943910 0.821027 -24.821365 0.000000 0.000000 0.000000 -29.694113 -4.299954 4.316617 -38.038220 -16.630350 -2.617221 -8.824416 -29.483154 4.035699 0.000000 0.000000 0.000000 17.242923 13.022161 3.823488 47.774854 11.974686 -1.795957 6.077795 35.496615 2.746756 0.000000 0.000000 0.000000 
0.072703 0.962259 0.249699 -3.209704 -12.904876 0.545185 5.812985 -0.025268 -3.323484 -3.322334 0.488598 3.396172 3.137244 8.333094 11.864312 0.000000 0.000000 0.000000 -3.760519 1.142640 -12.713296 10.219782 -0.724087 39.002224 -2.912308 -13.438632 19.568680 0.000000 0.000000 0.000000 -5.945509 0.784254 19.964920 8.676548 -1.642257 -23.978789 -0.254684 -1.967155 27.136296 -2.860453 1.715620 -24.677469 0.000000 0.000000 0.000000 -28.821852 -4.105184 4.787408 -38.413745 -18.106960 -2.388294 -8.373769 -29.612381 4.006442 0.000000 0.000000 0.000000 16.825038 13.160993 3.503589 48.188911 11.308016 -2.064061 8.334803 35.919540 3.325120 0.000000 0.000000 0.000000 
0.071108 0.962732 0.270876 -3.612611 -13.629841 0.670157 6.057185 0.071468 -1.408401 -3.361250 0.488304 2.051181 3.543035 9.038347 12.685780 0.000000 0.000000 0.000000 -4.115313 1.277190 -14.230277 10.537724 -0.885687 34.862794 -4.760775 -15.319593 13.216376 0.000000 0.000000 0.000000 -5.622469 0.733203 19.768325 8.848139 -1.711358 -23.765182 -0.553573 -3.036948 26.977063 -3.431005 1.820373 -24.459308 0.000000 0.000000 0.000000 -28.320294 -4.178566 5.337180 -38.028087 -19.694778 -2.022567 -7.970379 -29.454026 3.904800 0.000000 0.000000 0.000000 16.193451 12.787625 2.965208 49.156604 10.532520 -2.338472 9.807142 35.704431 3.594879 0.000000 0.000000 0.000000 
0.067010 0.961936 0.292103 -4.128140 -15.221694 0.669024 6.434225 0.209393 0.824279 -3.593000 0.528379 0.610465 4.867107 11.155319 13.935425 0.000000 0.000000 0.000000 -3.568756 1.542786 -16.112595 8.819148 -0.267401 29.945076 -5.039792 -15.130851 9.087355 0.000000 0.000000 0.000000 -5.522744 0.790057 20.086557 9.815390 -1.798992 -24.785595 -1.004405 -2.867844 27.804957 -3.105422 1.493911 -25.255268 0.000000 0.000000 0.000000 -28.226293 -3.796162 5.413369 -37.578472 -20.570332 -1.948834 -7.731787 -29.758699 3.918218 0.000000 0.000000 0.000000 16.643409 12.183086 2.450522 49.251860 9.683959 -2.725764 10.812371 34.928635 3.755963 0.000000 0.000000 0.000000 
0.060475 0.959382 0.313505 -4.292003 -15.457832 0.666755 6.530185 0.319716 2.994681 -3.691484 0.533521 -1.260045 5.901471 12.875044 14.958894 0.000000 0.000000 0.000000 -3.358441 1.635435 -16.731384 7.265669 -0.160164 22.417594 -4.385393 -14.277631 9.978276 0.000000 0.000000 0.000000 -5.464043 0.786200 20.100552 9.935082 -1.811250 -24.850425 -1.152989 -3.683021 27.680569 -2.796813 1.167853 -26.224408 0.000000 0.000000 0.000000 -28.599160 -4.060199 5.954273 -37.131611 -21.827345 -1.661891 -7.026967 -30.567852 3.851428 0.000000 0.000000 0.000000 15.956478 12.171332 2.275366 50.379009 8.737299 -3.169773 11.633077 33.978756 3.797737 0.000000 0.000000 0.000000 
